# AST/ASF file generated using VICON BodyLanguage
# -----------------------------------------------
:version 1.10
:name VICON
:units
  mass 1.0
  length 0.45
  angle deg
:documentation
   .ast/.asf automatically generated from VICON data using
   VICON BodyBuilder and BodyLanguage model FoxedUp or BRILLIANT.MOD
:root
   order TX TY TZ RX RY RZ
   axis XYZ
   position 0 0 0  
   orientation 0 0 0 
:bonedata
  begin
     id 1 
     name lhipjoint
     direction 0.70531 -0.63749 0.310071 
     length 2.59589 
     axis 0 0 0  XYZ
  end
  begin
     id 2 
     name lfemur
     direction 0.34202 -0.939693 0  
     length 6.19797  
     axis 0 0 20  XYZ
    dof rx ry rz
    limits (-160.0 20.0)
           (-70.0 70.0)
           (-60.0 70.0)
  end
  begin
     id 3 
     name ltibia
     direction 0.34202 -0.939693 0   
     length 7.80054   
     axis 0 0 20   XYZ
    dof rx
    limits (-10.0 170.0)
  end
  begin
     id 4 
     name lfoot
     direction 0.0828572 -0.227648 0.970212   
     length 1.88124   
     axis -90 7.62852e-016 20   XYZ
    dof rx rz
    limits (-45.0 90.0)
           (-70.0 20.0)
  end
  begin
     id 5 
     name ltoes
     direction 1.53544e-011 -4.219e-011 1   
     length 0.948015   
     axis -90 7.62852e-016 20   XYZ
    dof rx
    limits (-90.0 20.0)
  end
  begin
     id 6 
     name rhipjoint
     direction -0.730062 -0.614543 0.29891   
     length 2.69282  
     axis 0 0 0  XYZ 
  end
  begin
     id 7 
     name rfemur
     direction -0.34202 -0.939693 0   
     length 5.86298   
     axis 0 0 -20   XYZ
    dof rx ry rz
    limits (-160.0 20.0)
           (-70.0 70.0)
           (-70.0 60.0)
  end
  begin
     id 8 
     name rtibia
     direction -0.34202 -0.939693 0   
     length 7.72374   
     axis 0 0 -20   XYZ
    dof rx
    limits (-10.0 170.0)
 end
 begin
     id 9 
     name rfoot
     direction -0.0967421 -0.265797 0.959163   
     length 2.02368  
     axis -90 -7.62852e-016 -20   XYZ
    dof rx rz
    limits (-45.0 90.0)
           (-20.0 70.0)
  end
  begin
     id 10 
     name rtoes
     direction -1.53524e-011 -4.21768e-011 1   
     length 1.01373   
     axis -90 -7.62852e-016 -20   XYZ
    dof rx
    limits (-90.0 20.0)
  end
  begin
     id 11 
     name lowerback
     direction 0.00561702 0.992801 -0.119643   
     length 2.02816   
     axis 0 0 0   XYZ
    dof rx ry rz
    limits (-20.0 45.0)
           (-30.0 30.0)
           (-30.0 30.0)
  end
  begin
     id 12 
     name upperback
     direction 0.00155544 0.995735 -0.0922509   
     length 2.02265   
     axis 0 0 0   XYZ
    dof rx ry rz
    limits (-20.0 45.0)
           (-30.0 30.0)
           (-30.0 30.0)
  end
  begin
     id 13 
     name thorax
     direction -0.000937535 0.999317 -0.0369292   
     length 2.04823   
     axis 0 0 0   XYZ
    dof rx ry rz
    limits (-20.0 45.0)
           (-30.0 30.0)
           (-30.0 30.0)
  end
  begin
     id 14 
     name lowerneck
     direction -0.0813151 0.981659 0.172436   
     length 1.8875   
     axis 0 0 0   XYZ
    dof rx ry rz
    limits (-20.0 45.0)
           (-30.0 30.0)
           (-30.0 30.0)
  end
  begin
     id 15 
     name upperneck
     direction 0.119359 0.955672 -0.269157   
     length 1.92801   
     axis 0 0 0   XYZ
    dof rx ry rz
    limits (-20.0 45.0)
           (-30.0 30.0)
           (-30.0 30.0)
  end
  begin
     id 16
     name head
     direction 0.0421007 0.992672 -0.113268  
     length 1.95809  
     axis 0 0 0   XYZ
    dof rx ry rz
    limits (-20.0 45.0)
           (-30.0 30.0)
           (-30.0 30.0)
  end
  begin
     id 17 
     name lclavicle
     direction 0.944093 0.32865 -0.0260136  
     length 3.84992  
     axis 0 0 0   XYZ
    dof ry rz
    limits (-20.0 10.0)
           (0.0 20.0)
  end
  begin
     id 18 
     name lhumerus
     direction 1 -4.48979e-011 -1.27712e-029   
     length 5.53593   
     axis 180 -30 -90   XYZ
    dof rx ry rz
    limits (-60.0 90.0)
           (-90.0 90.0)
           (-90.0 90.0)
  end
  begin
     id 19
     name lradius
     direction 1 -4.48966e-011 1.00051e-028   
     length 3.13345   
     axis 180 -30 -90   XYZ
    dof rx
    limits (-10.0 170.0)
  end
  begin
     id 20
     name lwrist
     direction 1 -4.4896e-011 2.56952e-028   
     length 1.56673   
     axis -5.12785e-016 90 90   XYZ
    dof ry
    limits (-180.0 0.0)
 end
  begin
     id 21 
     name lhand
     direction 1 -4.48934e-011 5.13905e-028   
     length 0.713374   
     axis -3.27915e-016 90 90   XYZ
    dof rx rz
    limits (-90.0 90.0)
           (-45.0 45.0)
  end
  begin
     id 22 
     name lfingers
     direction 1 -4.48973e-011 1.02781e-027   
     length 0.575141   
     axis -6.5583e-016 90 90   XYZ
    dof rx
    limits (0.0 90.0)
  end
  begin
     id 23
     name lthumb
     direction 0.707107 -6.34883e-011 0.707107   
     length 0.82579   
     axis -90 45 2.85299e-015   XYZ
    dof rx rz
    limits (-45.0 45.0)
           (-45.0 45.0)
  end
  begin
     id 24 
     name rclavicle
     direction -0.936895 0.34884 0.0232243   
     length 3.53304  
     axis 0 0 0   XYZ 
    dof ry rz
    limits (-10.0 20.0)
           (-20.0 0.0)
  end
  begin
     id 25 
     name rhumerus
     direction -1 -4.48965e-011 1.05514e-027  
     length 5.4685   
     axis 180 30 90   XYZ
    dof rx ry rz
    limits (-90.0 60.0)
           (-90.0 90.0)
           (-90.0 90.0)
  end
  begin
     id 26 
     name rradius
     direction -1 -4.48964e-011 -1.1079e-027   
     length 3.22411   
     axis 180 30 90   XYZ
    dof rx
    limits (-10.0 170.0)
  end
  begin
     id 27 
     name rwrist
     direction -1 -4.48973e-011 2.56952e-028   
     length 1.61206   
     axis -5.12785e-016 -90 -90   XYZ
    dof ry
    limits (-180.0 0.0)
  end
  begin
     id 28
     name rhand
     direction -1 -4.48957e-011 5.13905e-028   
     length 0.74528   
     axis -3.27915e-016 -90 -90   XYZ
    dof rx rz
    limits (-90.0 90.0)
           (-45.0 45.0)
  end
  begin
     id 29
     name rfingers
     direction -1 -4.4901e-011 1.02781e-027   
     length 0.600864   
     axis -6.5583e-016 -90 -90   XYZ
    dof rx
    limits (0.0 90.0)
  end
  begin
     id 30
     name rthumb
     direction -0.707107 -6.34972e-011 0.707107   
     length 0.862724   
     axis -90 -45 -2.85299e-015   XYZ
    dof rx rz
    limits (-45.0 45.0)
           (-45.0 45.0)
  end
:hierarchy
  begin
    root lhipjoint rhipjoint lowerback
    lhipjoint lfemur
    lfemur ltibia
    ltibia lfoot
    lfoot ltoes
    rhipjoint rfemur
    rfemur rtibia
    rtibia rfoot
    rfoot rtoes
    lowerback upperback
    upperback thorax
    thorax lowerneck lclavicle rclavicle
    lowerneck upperneck
    upperneck head
    lclavicle lhumerus
    lhumerus lradius
    lradius lwrist
    lwrist lhand lthumb
    lhand lfingers
    rclavicle rhumerus
    rhumerus rradius
    rradius rwrist
    rwrist rhand rthumb
    rhand rfingers
  end

#!OML:ASF G:\Work\Work\Patient Classification 1\Liu\Session 1\Liu.ASF
:FULLY-SPECIFIED
:DEGREES
738
root 16.2145 14.3214 33.4944 -526.1 39.371 -166.959
lowerback 8.0328 -1.374 8.79017
upperback 3.55282 -0.661341 4.69094
thorax -0.868187 -0.0926998 0.00164225
lowerneck -23.2433 5.85546 -3.92611
upperneck 17.9024 10.1645 -2.87084
head 9.43667 4.16194 1.11982
rclavicle -5.79457e-014 1.10922e-013
rhumerus -41.7753 37.0048 -78.0982
rradius 97.8636
rwrist -12.7569
rhand -18.9621 31.7237
rfingers 7.12502
rthumb 7.34177 1.87109
lclavicle -5.79457e-014 1.10922e-013
lhumerus -46.9989 -25.6074 97.2981
lradius 85.4742
lwrist 17.3545
lhand -26.4216 38.9572
lfingers 7.12502
lthumb 0.138568 68.9369
rfemur -16.1077 -17.1273 21.1764
rtibia 44.7162
rfoot -17.1728 -29.623
rtoes -56.3002
lfemur -24.3224 12.1741 -22.3107
ltibia 95.0777
lfoot -9.15766 10.5633
ltoes 14.1346
739
root 16.3402 14.265 33.4386 -525.324 38.259 -167.395
lowerback 7.82168 -1.00503 8.30821
upperback 3.46779 -0.252125 4.5572
thorax -0.813366 0.0971953 0.089546
lowerneck -24.0361 5.59632 -3.65141
upperneck 17.5662 9.71921 -2.90675
head 9.47328 3.95971 1.01705
rclavicle 8.20981e-014 -7.196e-014
rhumerus -38.9317 37.6272 -77.2227
rradius 97.3712
rwrist -12.2489
rhand -18.6114 32.2594
rfingers 7.12502
rthumb 7.68027 2.41887
lclavicle 8.20981e-014 -7.196e-014
lhumerus -46.9195 -24.8119 96.59
lradius 83.8833
lwrist 16.1637
lhand -27.7587 41.1511
lfingers 7.12502
lthumb -1.15284 71.1277
rfemur -16.9602 -17.7968 21.554
rtibia 45.5273
rfoot -17.7566 -27.4467
rtoes -58.3887
lfemur -29.2453 12.29 -22.9062
ltibia 98.262
lfoot -9.21458 9.64233
ltoes 9.65727
740
root 16.4616 14.2212 33.3787 -524.375 37.1759 -167.653
lowerback 7.81352 -0.727952 7.55717
upperback 3.22633 0.0773824 4.78084
thorax -1.04515 0.240055 0.707632
lowerneck -24.9554 5.4925 -3.80591
upperneck 17.6061 9.67973 -2.91564
head 9.63969 3.90857 1.06061
rclavicle 4.53229e-014 -5.08889e-014
rhumerus -36.0722 38.8633 -75.9355
rradius 96.7907
rwrist -12.0285
rhand -18.611 32.9546
rfingers 7.12502
rthumb 7.68059 3.11408
lclavicle 4.53229e-014 -5.08889e-014
lhumerus -47.2642 -23.3938 96.3674
lradius 82.6766
lwrist 15.6875
lhand -28.517 43.8678
lfingers 7.12502
lthumb -1.8852 73.8392
rfemur -17.8198 -18.2522 22.1511
rtibia 46.1544
rfoot -15.9114 -30.3508
rtoes -56.9615
lfemur -34.5124 12.4016 -23.4755
ltibia 101.137
lfoot -9.43918 9.04888
ltoes 5.06407
741
root 16.587 14.1931 33.2792 -523.636 36.1328 -168.272
lowerback 7.51725 -0.364663 6.73246
upperback 2.90218 0.470887 4.88303
thorax -1.20966 0.411434 1.23544
lowerneck -25.4043 5.06442 -4.00648
upperneck 17.4721 9.17332 -2.89393
head 9.66298 3.65958 1.03275
rclavicle -4.05521e-014 -4.77083e-015
rhumerus -33.8101 39.7354 -74.8419
rradius 96.386
rwrist -11.8142
rhand -19.4828 33.3818
rfingers 7.12502
rthumb 6.83908 3.51222
lclavicle -4.05521e-014 -4.77083e-015
lhumerus -48.2684 -22.3338 96.6077
lradius 81.8428
lwrist 15.345
lhand -28.1113 47.5989
lfingers 7.12502
lthumb -1.49342 77.5734
rfemur -18.2445 -18.939 22.2498
rtibia 46.3107
rfoot -15.9262 -28.8967
rtoes -57.7447
lfemur -39.4297 12.1793 -24.6757
ltibia 103.288
lfoot -9.83825 8.82473
ltoes 4.08025
742
root 16.7103 14.1742 33.1558 -523.249 34.8632 -168.946
lowerback 7.32006 -0.115345 6.1807
upperback 2.57581 0.743459 4.87786
thorax -1.4384 0.526136 1.51249
lowerneck -25.2564 4.43499 -4.0003
upperneck 17.0756 8.29354 -2.97931
head 9.50915 3.26048 0.858396
rclavicle -3.57812e-015 -7.71285e-014
rhumerus -32.261 40.2523 -74.2203
rradius 96.45
rwrist -11.4841
rhand -19.7385 33.3338
rfingers 7.12502
rthumb 6.59223 3.45639
lclavicle -3.57812e-015 -7.71285e-014
lhumerus -50.054 -21.4528 97.028
lradius 81.6645
lwrist 15.2907
lhand -27.663 51.4901
lfingers 7.12502
lthumb -1.06044 81.4672
rfemur -17.681 -19.8009 22.1301
rtibia 45.5032
rfoot -18.1026 -29.1429
rtoes -60.0756
lfemur -43.8247 11.5014 -26.0187
ltibia 104.768
lfoot -10.7826 8.97149
ltoes 4.50844
743
root 16.8336 14.1714 33.0009 -523.117 33.9813 -169.104
lowerback 7.38995 0.0990244 6.24328
upperback 2.4328 1.03507 4.73498
thorax -1.61625 0.661207 1.30305
lowerneck -24.6074 3.99507 -3.81135
upperneck 16.424 7.55192 -3.02692
head 9.18279 2.95761 0.676242
rclavicle -3.81667e-014 -1.59028e-015
rhumerus -31.0704 40.6081 -74.2874
rradius 96.6901
rwrist -10.9975
rhand -19.398 33.5797
rfingers 7.12502
rthumb 6.92096 3.71279
lclavicle -3.81667e-014 -1.59028e-015
lhumerus -52.1448 -20.6911 96.9232
lradius 82.155
lwrist 16.6095
lhand -27.4277 54.7913
lfingers 7.12502
lthumb -0.833181 84.7694
rfemur -16.0137 -20.3115 22.047
rtibia 44.011
rfoot -13.8977 -29.7701
rtoes -57.4774
lfemur -47.255 11.2557 -26.9622
ltibia 105.618
lfoot -12.1681 9.22924
ltoes 5.52488
744
root 16.9771 14.2144 32.6546 -524.816 36.1563 -168.041
lowerback 8.30574 0.954372 7.54166
upperback 3.61786 2.3269 4.27345
thorax -0.790474 1.37671 -0.00366605
lowerneck -24.1312 3.73225 -3.69322
upperneck 15.8439 7.0367 -2.83356
head 8.89626 2.77251 0.629255
rclavicle -3.27995e-014 5.56597e-014
rhumerus -29.3885 40.8107 -74.606
rradius 96.4273
rwrist -10.5437
rhand -18.8347 34.734
rfingers 7.12502
rthumb 7.46474 4.88566
lclavicle -3.27995e-014 5.56597e-014
lhumerus -54.0651 -20.1791 96.5584
lradius 82.96
lwrist 19.0627
lhand -27.8427 56.8305
lfingers 7.12502
lthumb -1.23403 86.8067
rfemur -10.382 -19.0463 20.3473
rtibia 41.3213
rfoot -15.8532 -29.3539
rtoes -58.5171
lfemur -45.2413 14.6363 -27.1863
ltibia 104.654
lfoot -15.2635 8.48891
ltoes 5.42606
745
root 17.1036 14.2584 32.4798 -524.725 35.2404 -168.322
lowerback 8.28882 1.08706 7.38188
upperback 3.4979 2.47498 4.09149
thorax -0.896374 1.4367 -0.118639
lowerneck -24.2704 3.6349 -3.45865
upperneck 15.9272 6.73111 -2.42729
head 8.93837 2.67919 0.690148
rclavicle -4.73108e-014 -1.47101e-014
rhumerus -27.9248 40.9456 -75.0905
rradius 96.242
rwrist -10.2266
rhand -19.0279 34.7488
rfingers 7.12502
rthumb 7.2782 4.89397
lclavicle -4.73108e-014 -1.47101e-014
lhumerus -56.0322 -19.9252 96.3115
lradius 83.8539
lwrist 21.0541
lhand -28.5306 57.1022
lfingers 7.12502
lthumb -1.89833 87.0735
rfemur -7.96646 -19.0831 20.13
rtibia 38.4107
rfoot -15.2385 -28.3684
rtoes -57.9453
lfemur -48.4719 14.192 -28.1875
ltibia 104.509
lfoot -15.9225 8.96233
ltoes 5.42517
746
root 17.2307 14.3114 32.2599 -524.532 33.6799 -168.363
lowerback 7.88674 1.07197 7.89739
upperback 3.45216 2.44479 3.9391
thorax -0.692847 1.43004 -0.545348
lowerneck -24.6496 3.46155 -3.42624
upperneck 16.194 6.37017 -1.83631
head 9.07267 2.56094 0.845829
rclavicle 7.15625e-015 3.81667e-014
rhumerus -27.7346 40.6238 -75.8526
rradius 97.114
rwrist -10.0184
rhand -19.4543 33.8185
rfingers 7.12502
rthumb 6.86663 3.94982
lclavicle 7.15625e-015 3.81667e-014
lhumerus -57.9932 -20.0081 96.1165
lradius 84.8639
lwrist 22.04
lhand -28.5512 56.7418
lfingers 7.12502
lthumb -1.9183 86.713
rfemur -4.82427 -19.7096 20.0415
rtibia 34.7443
rfoot -15.0908 -27.0844
rtoes -57.2319
lfemur -51.2321 12.9647 -28.8545
ltibia 103.939
lfoot -16.7568 9.41
ltoes 6.11414
